<svg xmlns="http://www.w3.org/2000/svg"  viewBox="0 0 100 100" width="100px" height="100px"><path d="M 52.939453 7.9101562 C 52.473976 7.9170105 52.019986 7.9349654 51.576172 7.9648438 C 30.62275 9.3755753 11.730562 28.230432 9.1386719 50.191406 C 7.994463 59.879486 10.503977 71.725105 24.173828 83.544922 C 24.797973 84.129502 25.440207 84.698036 26.123047 85.234375 C 26.546446 85.566935 26.97971 85.881317 27.416016 86.1875 C 27.439909 86.205841 27.462378 86.223847 27.486328 86.242188 A 1.0001 1.0001 0 0 0 27.587891 86.3125 C 27.58938 86.313529 27.590308 86.315377 27.591797 86.316406 C 43.012298 96.97063 66.129246 91.352602 80.134766 73.521484 C 94.495469 55.238166 94.104297 30.698025 79.017578 18.525391 A 1.0005381 1.0005381 0 0 0 78.910156 18.419922 C 69.272476 10.386296 59.921605 7.8073429 52.939453 7.9101562 z M 58.640625 13.822266 C 65.509145 13.671215 72.099181 15.619369 77.482422 19.847656 C 91.837729 31.123089 92.467971 54.578929 78.560547 72.285156 C 65.059913 89.473479 43.050818 94.634713 28.642578 84.607422 C 27.527085 83.751456 26.488907 82.898344 25.5 82.046875 C 12.986358 70.262911 13.004759 48.12561 26.28125 31.222656 C 34.97339 20.156264 47.193092 14.074017 58.640625 13.822266 z M 57.986328 18.369141 C 47.75502 18.614169 36.903235 24.087252 29.246094 33.835938 C 29.233399 33.8521 29.221652 33.868592 29.208984 33.884766 C 29.198041 33.898663 29.186711 33.911866 29.175781 33.925781 C 27.703607 35.800079 26.418343 37.754656 25.324219 39.759766 C 17.264166 54.389507 18.895607 71.628395 30.294922 80.582031 C 43.279658 90.780942 63.707558 86.125238 75.958984 70.527344 C 88.210411 54.929449 87.894892 33.980161 74.910156 23.78125 C 70.04088 19.956658 64.125113 18.222124 57.986328 18.369141 z M 56.746094 21.078125 C 62.247761 20.935049 67.516942 22.476342 71.806641 25.845703 C 83.245839 34.830665 83.702018 53.657186 72.482422 67.941406 C 61.262827 82.225625 42.863026 86.242774 31.423828 77.257812 C 21.079853 69.133096 19.718365 52.960992 27.847656 39.376953 C 28.731579 37.908686 29.720947 36.469435 30.818359 35.072266 C 31.145607 34.65563 31.481666 34.251399 31.820312 33.851562 C 38.740202 25.752934 48.035121 21.304661 56.746094 21.078125 z M 52.785156 24.652344 A 1.0001 1.0001 0 0 0 51.800781 25.666016 L 51.800781 30.400391 A 1.0001 1.0001 0 1 0 53.800781 30.400391 L 53.800781 25.666016 A 1.0001 1.0001 0 0 0 52.785156 24.652344 z M 81.46875 25.085938 C 81.84075 25.628938 82.267578 26.192344 82.767578 26.777344 C 82.363578 26.192344 81.93675 25.628937 81.46875 25.085938 z M 60.923828 28.615234 C 59.980332 28.675544 58.892109 29.391719 58.349609 30.839844 C 57.00026 34.425787 53.804793 42.748184 51.962891 47.558594 C 51.072589 47.863451 50.203247 48.451241 49.474609 49.378906 C 47.615366 51.745999 48.058626 54.50144 49.740234 55.822266 C 50.514526 56.430436 51.524983 56.694483 52.568359 56.589844 L 56.189453 63.589844 C 57.889453 66.529844 60.96 64.09 59.75 61.75 L 56.035156 54.583984 C 56.043825 54.57309 56.05387 54.565674 56.0625 54.554688 C 57.852582 52.275644 57.495796 49.651302 55.966797 48.279297 C 57.805319 43.486663 61.031971 35.064926 62.380859 31.480469 C 63.112109 29.545469 62.136895 28.537693 60.923828 28.615234 z M 70.833984 28.935547 A 1.0001 1.0001 0 0 0 70.085938 29.324219 L 67.138672 33.027344 A 1.0007969 1.0007969 0 0 0 68.705078 34.273438 L 71.652344 30.568359 A 1.0001 1.0001 0 0 0 70.833984 28.935547 z M 34.185547 36.421875 A 1.0001 1.0001 0 0 0 33.587891 38.212891 L 37.074219 40.986328 A 1.0001 1.0001 0 1 0 38.318359 39.421875 L 34.832031 36.648438 A 1.0001 1.0001 0 0 0 34.185547 36.421875 z M 77.650391 45.982422 A 1.0001 1.0001 0 0 0 77.480469 46.003906 L 72.910156 46.886719 A 1.0001 1.0001 0 1 0 73.289062 48.849609 L 77.861328 47.966797 A 1.0001 1.0001 0 0 0 77.650391 45.982422 z M 53.443359 49.240234 C 53.870294 49.269916 54.252645 49.44217 54.5625 49.685547 C 55.388778 50.33455 55.844652 51.595937 54.490234 53.320312 C 53.135818 55.044686 51.802841 54.899004 50.976562 54.25 C 50.150284 53.600996 49.692457 52.339608 51.046875 50.615234 C 51.893386 49.5375 52.731802 49.190765 53.443359 49.240234 z M 31.597656 55.730469 A 1.0001 1.0001 0 0 0 31.427734 55.75 L 26.664062 56.669922 A 1.0005227 1.0005227 0 1 0 27.042969 58.634766 L 31.806641 57.712891 A 1.0001 1.0001 0 0 0 31.597656 55.730469 z M 67.544922 62.623047 A 1.0001 1.0001 0 0 0 66.947266 64.414062 L 69.894531 66.759766 A 1.0001 1.0001 0 1 0 71.140625 65.195312 L 68.193359 62.849609 A 1.0001 1.0001 0 0 0 67.544922 62.623047 z M 38.025391 69.40625 A 1.0001 1.0001 0 0 0 37.277344 69.792969 L 33.873047 74.072266 A 1.000189 1.000189 0 1 0 35.439453 75.316406 L 38.841797 71.039062 A 1.0001 1.0001 0 0 0 38.025391 69.40625 z M 53.082031 72.148438 A 1.0001 1.0001 0 0 0 52.097656 73.162109 L 52.097656 77.783203 A 1.0001 1.0001 0 1 0 54.097656 77.783203 L 54.097656 73.162109 A 1.0001 1.0001 0 0 0 53.082031 72.148438 z"/></svg>